<mxfile host="app.diagrams.net" agent="Mozilla/5.0 (Windows NT 10.0; Win64; x64) AppleWebKit/537.36 (KHTML, like Gecko) Chrome/134.0.0.0 Safari/537.36 Edg/134.0.0.0" version="26.1.2">
  <diagram name="第 1 页" id="ZJPhWHp4gk_mB-wDxxCd">
    <mxGraphModel dx="1722" dy="951" grid="1" gridSize="10" guides="1" tooltips="1" connect="1" arrows="1" fold="1" page="1" pageScale="1" pageWidth="827" pageHeight="1169" math="0" shadow="0">
      <root>
        <mxCell id="0" />
        <mxCell id="1" parent="0" />
        <mxCell id="zGPB8Jo-uJLIJsKur1k7-1" value="&lt;span style=&quot;font-family: KaiTi_GB2312;&quot;&gt;&lt;font style=&quot;font-size: 14px;&quot;&gt;&lt;span style=&quot;white-space: pre;&quot;&gt;&#x9;&lt;/span&gt;&amp;nbsp; &amp;nbsp;基于文本提示生成多视角一致的二维矢量图形；其中所述多视角一致性二维矢量图形根据用户输入的文本提示生成，保证从不同视角观察时的一致性&lt;/font&gt;&lt;/span&gt;" style="rounded=0;whiteSpace=wrap;html=1;" vertex="1" parent="1">
          <mxGeometry x="160" y="400" width="360" height="80" as="geometry" />
        </mxCell>
        <mxCell id="zGPB8Jo-uJLIJsKur1k7-2" value="" style="endArrow=classic;html=1;rounded=0;exitX=0.5;exitY=1;exitDx=0;exitDy=0;entryX=0.5;entryY=0;entryDx=0;entryDy=0;" edge="1" parent="1" source="zGPB8Jo-uJLIJsKur1k7-1" target="zGPB8Jo-uJLIJsKur1k7-3">
          <mxGeometry width="50" height="50" relative="1" as="geometry">
            <mxPoint x="390" y="510" as="sourcePoint" />
            <mxPoint x="440" y="460" as="targetPoint" />
          </mxGeometry>
        </mxCell>
        <mxCell id="zGPB8Jo-uJLIJsKur1k7-3" value="&lt;font style=&quot;font-size: 14px;&quot;&gt;&lt;span style=&quot;font-family: KaiTi_GB2312;&quot;&gt;&amp;nbsp;&lt;span style=&quot;white-space: pre;&quot;&gt;&#x9;&lt;/span&gt;&amp;nbsp;基于预设的第一神经网络模型对所述文本提示进行处理，生成与文本提示一致的三维几何结构（&lt;/span&gt;&lt;span style=&quot;font-family: &amp;quot;Times New Roman&amp;quot;, serif;&quot; lang=&quot;EN-US&quot;&gt;3DGS&lt;/span&gt;&lt;span style=&quot;font-family: KaiTi_GB2312;&quot;&gt;），并利用所述&lt;/span&gt;&lt;span style=&quot;font-family: &amp;quot;Times New Roman&amp;quot;, serif;&quot; lang=&quot;EN-US&quot;&gt;3DGS&lt;/span&gt;&lt;span style=&quot;font-family: KaiTi_GB2312;&quot;&gt;优化生成三维矢量图形（&lt;/span&gt;&lt;span style=&quot;font-family: &amp;quot;Times New Roman&amp;quot;, serif;&quot; lang=&quot;EN-US&quot;&gt;3DVG&lt;/span&gt;&lt;span style=&quot;font-family: KaiTi_GB2312;&quot;&gt;）&lt;/span&gt;&lt;/font&gt;" style="rounded=0;whiteSpace=wrap;html=1;align=center;" vertex="1" parent="1">
          <mxGeometry x="160" y="530" width="360" height="80" as="geometry" />
        </mxCell>
        <mxCell id="zGPB8Jo-uJLIJsKur1k7-5" value="&lt;p style=&quot;text-indent: 28pt;&quot; class=&quot;MsoNormal&quot;&gt;&lt;font style=&quot;font-size: 14px;&quot;&gt;&lt;span style=&quot;font-family: KaiTi_GB2312;&quot;&gt;建立包含两个分支的模型，顶部分支用于文本条件下的三维高斯溅射&lt;/span&gt;&lt;span style=&quot;font-family: &amp;quot;Times New Roman&amp;quot;, serif;&quot; lang=&quot;EN-US&quot;&gt;3DGS&lt;/span&gt;&lt;span style=&quot;font-family: KaiTi_GB2312;&quot;&gt;生成，底部分支用于在&lt;/span&gt;&lt;span style=&quot;font-family: &amp;quot;Times New Roman&amp;quot;, serif;&quot; lang=&quot;EN-US&quot;&gt;3DGS&lt;/span&gt;&lt;span style=&quot;font-family: KaiTi_GB2312;&quot;&gt;指导下的三维矢量图形&lt;/span&gt;&lt;span style=&quot;font-family: &amp;quot;Times New Roman&amp;quot;, serif;&quot; lang=&quot;EN-US&quot;&gt;3DVG&lt;/span&gt;&lt;span style=&quot;font-family: KaiTi_GB2312;&quot;&gt;生成，并联合优化两个分支，利用不同扩散步骤生成的引导细节作为&lt;/span&gt;&lt;span style=&quot;font-family: &amp;quot;Times New Roman&amp;quot;, serif;&quot; lang=&quot;EN-US&quot;&gt;3DVG&lt;/span&gt;&lt;span style=&quot;font-family: KaiTi_GB2312;&quot;&gt;的渐进式指导&lt;/span&gt;&lt;/font&gt;&lt;/p&gt;" style="rounded=0;whiteSpace=wrap;html=1;align=center;" vertex="1" parent="1">
          <mxGeometry x="160" y="660" width="360" height="80" as="geometry" />
        </mxCell>
        <mxCell id="zGPB8Jo-uJLIJsKur1k7-9" value="" style="endArrow=classic;html=1;rounded=0;exitX=0.5;exitY=1;exitDx=0;exitDy=0;" edge="1" parent="1" source="zGPB8Jo-uJLIJsKur1k7-3" target="zGPB8Jo-uJLIJsKur1k7-5">
          <mxGeometry width="50" height="50" relative="1" as="geometry">
            <mxPoint x="350" y="490" as="sourcePoint" />
            <mxPoint x="350" y="540" as="targetPoint" />
          </mxGeometry>
        </mxCell>
        <mxCell id="zGPB8Jo-uJLIJsKur1k7-10" value="&lt;p style=&quot;text-indent: 28pt;&quot; class=&quot;MsoNormal&quot;&gt;&lt;font style=&quot;font-size: 14px;&quot;&gt;&lt;span style=&quot;font-family: KaiTi_GB2312;&quot;&gt;通过引入可见性感知的&lt;/span&gt;&lt;span style=&quot;&quot; lang=&quot;EN-US&quot;&gt;3DVG&lt;/span&gt;&lt;span style=&quot;font-family: KaiTi_GB2312;&quot;&gt;渲染方法，改进矢量图形生成的视角依赖细节&lt;/span&gt;&lt;/font&gt;&lt;span style=&quot;font-size:14.0pt;mso-fareast-font-family:KaiTi_GB2312&quot; lang=&quot;EN-US&quot;&gt;&lt;/span&gt;&lt;/p&gt;" style="rounded=0;whiteSpace=wrap;html=1;" vertex="1" parent="1">
          <mxGeometry x="160" y="790" width="360" height="80" as="geometry" />
        </mxCell>
        <mxCell id="zGPB8Jo-uJLIJsKur1k7-11" value="" style="endArrow=classic;html=1;rounded=0;exitX=0.5;exitY=1;exitDx=0;exitDy=0;entryX=0.5;entryY=0;entryDx=0;entryDy=0;" edge="1" parent="1" source="zGPB8Jo-uJLIJsKur1k7-5" target="zGPB8Jo-uJLIJsKur1k7-10">
          <mxGeometry width="50" height="50" relative="1" as="geometry">
            <mxPoint x="350" y="620" as="sourcePoint" />
            <mxPoint x="350" y="670" as="targetPoint" />
          </mxGeometry>
        </mxCell>
        <mxCell id="zGPB8Jo-uJLIJsKur1k7-12" value="" style="endArrow=none;html=1;rounded=0;exitX=0.75;exitY=0;exitDx=0;exitDy=0;entryX=0.75;entryY=1;entryDx=0;entryDy=0;" edge="1" parent="1" source="zGPB8Jo-uJLIJsKur1k7-1" target="zGPB8Jo-uJLIJsKur1k7-13">
          <mxGeometry width="50" height="50" relative="1" as="geometry">
            <mxPoint x="420" y="610" as="sourcePoint" />
            <mxPoint x="520" y="360" as="targetPoint" />
          </mxGeometry>
        </mxCell>
        <mxCell id="zGPB8Jo-uJLIJsKur1k7-13" value="S1" style="text;html=1;align=center;verticalAlign=middle;whiteSpace=wrap;rounded=0;" vertex="1" parent="1">
          <mxGeometry x="480" y="350" width="60" height="30" as="geometry" />
        </mxCell>
        <mxCell id="zGPB8Jo-uJLIJsKur1k7-16" value="" style="endArrow=none;html=1;rounded=0;exitX=0.75;exitY=0;exitDx=0;exitDy=0;entryX=0.75;entryY=1;entryDx=0;entryDy=0;" edge="1" parent="1" target="zGPB8Jo-uJLIJsKur1k7-17">
          <mxGeometry width="50" height="50" relative="1" as="geometry">
            <mxPoint x="430" y="530" as="sourcePoint" />
            <mxPoint x="520" y="490" as="targetPoint" />
          </mxGeometry>
        </mxCell>
        <mxCell id="zGPB8Jo-uJLIJsKur1k7-17" value="S2" style="text;html=1;align=center;verticalAlign=middle;whiteSpace=wrap;rounded=0;" vertex="1" parent="1">
          <mxGeometry x="480" y="480" width="60" height="30" as="geometry" />
        </mxCell>
        <mxCell id="zGPB8Jo-uJLIJsKur1k7-18" value="" style="endArrow=none;html=1;rounded=0;exitX=0.75;exitY=0;exitDx=0;exitDy=0;entryX=0.75;entryY=1;entryDx=0;entryDy=0;" edge="1" parent="1" target="zGPB8Jo-uJLIJsKur1k7-19">
          <mxGeometry width="50" height="50" relative="1" as="geometry">
            <mxPoint x="430" y="660" as="sourcePoint" />
            <mxPoint x="520" y="620" as="targetPoint" />
          </mxGeometry>
        </mxCell>
        <mxCell id="zGPB8Jo-uJLIJsKur1k7-19" value="S3" style="text;html=1;align=center;verticalAlign=middle;whiteSpace=wrap;rounded=0;" vertex="1" parent="1">
          <mxGeometry x="480" y="610" width="60" height="30" as="geometry" />
        </mxCell>
        <mxCell id="zGPB8Jo-uJLIJsKur1k7-20" value="" style="endArrow=none;html=1;rounded=0;exitX=0.75;exitY=0;exitDx=0;exitDy=0;entryX=0.75;entryY=1;entryDx=0;entryDy=0;" edge="1" parent="1" target="zGPB8Jo-uJLIJsKur1k7-21">
          <mxGeometry width="50" height="50" relative="1" as="geometry">
            <mxPoint x="430" y="790" as="sourcePoint" />
            <mxPoint x="520" y="750" as="targetPoint" />
          </mxGeometry>
        </mxCell>
        <mxCell id="zGPB8Jo-uJLIJsKur1k7-21" value="S4" style="text;html=1;align=center;verticalAlign=middle;whiteSpace=wrap;rounded=0;" vertex="1" parent="1">
          <mxGeometry x="480" y="740" width="60" height="30" as="geometry" />
        </mxCell>
      </root>
    </mxGraphModel>
  </diagram>
</mxfile>
